<svg width="176" height="49" viewBox="0 0 176 49" fill="none" xmlns="http://www.w3.org/2000/svg">
<path d="M0 8.22079V16.4592L2.81655 13.6426L5.61549 10.8437L5.6683 8.2736L5.72111 5.72111L8.2736 5.6683L10.8437 5.61549L13.6426 2.81654L16.4592 -1.90735e-06H8.22079H0V8.22079Z" fill="white"/>
<path d="M35.2951 2.81654L38.1116 5.63309H40.6993H43.3046V8.2384V10.8261L46.1212 13.6426L48.9377 16.4592V8.22079V-1.90735e-06H40.7169H32.4785L35.2951 2.81654Z" fill="white"/>
<path d="M73.6352 5.77392C71.8924 6.39004 70.7834 7.41104 70.0089 9.11857C69.7096 9.76989 69.6216 10.2804 69.6216 11.6183C69.6216 13.2026 69.6568 13.3434 70.2553 14.4348C71.0475 15.8607 72.3325 16.9521 73.688 17.357C75.1843 17.7971 77.6135 17.6386 78.7754 17.0401C80.3597 16.2127 81.4863 14.8573 81.9088 13.2554C82.2432 11.9351 82.032 9.84031 81.4511 8.69609C80.9054 7.62228 79.6555 6.44285 78.5465 5.94995C77.3671 5.42185 74.885 5.33383 73.6352 5.77392ZM77.2439 7.85112C80.0604 9.01295 80.5005 13.1145 78.0184 14.8573C77.1558 15.4734 75.6243 15.667 74.5505 15.315C71.2059 14.206 71.2059 8.97774 74.5505 7.78071C75.3251 7.49905 76.5045 7.53426 77.2439 7.85112Z" fill="white"/>
<path d="M109.933 5.68591C108.912 6.02037 108.49 6.28443 107.61 7.09418C106.166 8.43204 105.515 10.4036 105.814 12.5512C106.078 14.5228 107.187 16.0719 109 17.0225C109.863 17.4802 110.092 17.5154 111.958 17.5154C113.7 17.5154 114.088 17.4626 114.792 17.1105C116.094 16.4768 116.992 15.579 117.626 14.294C118.154 13.2378 118.207 12.9737 118.207 11.5302C118.207 10.1924 118.136 9.78751 117.731 8.96014C117.151 7.6751 116.059 6.60129 114.792 6.02037C113.612 5.47467 111.113 5.29863 109.933 5.68591ZM113.207 7.78072C114.668 8.27361 115.601 9.50585 115.777 11.1606C116.024 13.5722 114.352 15.4734 111.975 15.491C110.127 15.491 108.701 14.3468 108.261 12.4984C107.539 9.48825 110.338 6.79492 113.207 7.78072Z" fill="white"/>
<path d="M59.8516 11.5302V17.4274H60.9958H62.14L62.1752 14.5932L62.228 11.7591L64.6573 14.5932L67.069 17.4274H68.5829H70.0791L67.7555 14.7341C66.4704 13.273 65.2734 11.8823 65.0798 11.6711L64.7453 11.3014L67.2274 8.46725L69.7271 5.6331H68.3188H66.9281L65.379 7.42865C64.5165 8.43204 63.4427 9.62907 62.985 10.122L62.14 11.0021V8.30882V5.6331H60.9958H59.8516V11.5302Z" fill="white"/>
<path d="M83.9683 11.5126V17.4274H85.1125H86.2567V15.6846V13.9595L87.7178 13.8715C89.3197 13.7659 90.5167 13.3434 91.1857 12.6569C92.6291 11.1254 92.5939 8.2384 91.08 6.83013C90.1295 5.93235 89.3901 5.75632 86.5736 5.6683L83.9683 5.59789V11.5126ZM88.598 7.99195C89.3373 8.29121 89.7774 8.97775 89.7774 9.80511C89.7774 11.0726 88.8268 11.7943 87.1369 11.7943H86.2567V9.7699V7.74551H87.1369C87.6298 7.74551 88.2811 7.85113 88.598 7.99195Z" fill="white"/>
<path d="M94.0024 11.5302V17.4274H95.1467H96.2909V12.5864V7.7279L98.8962 7.78071L101.484 7.83352L101.537 12.6217L101.572 17.4274H102.716H103.86V11.5302V5.6331H98.9314H94.0024V11.5302Z" fill="white"/>
<path d="M120.055 11.5302V17.4274H121.287H122.52V15.667V13.9067H123.541C124.104 13.9067 125.002 13.7835 125.53 13.625C127.519 13.0441 128.399 11.8471 128.399 9.7523C128.382 8.09758 127.889 7.16459 126.621 6.40765C125.547 5.75632 124.773 5.6331 122.062 5.6331H120.055V11.5302ZM124.685 7.99195C125.002 8.11518 125.389 8.39683 125.583 8.59047C125.97 9.04816 126.04 10.1572 125.706 10.7909C125.407 11.3542 124.35 11.7943 123.312 11.7943H122.52V9.7699V7.74551H123.312C123.752 7.74551 124.368 7.85113 124.685 7.99195Z" fill="white"/>
<path d="M132.747 6.72451C131.48 9.52345 128.118 16.8113 127.959 17.1105C127.801 17.4098 127.889 17.4274 129.086 17.4274H130.388L130.952 16.1951L131.497 14.9629H134.244H136.99L137.535 16.1951L138.081 17.4274H139.366H140.651L140.387 16.8465C140.229 16.5472 139.032 13.9067 137.694 11.0021L135.265 5.72111L134.261 5.6683L133.258 5.61549L132.747 6.72451ZM135.177 10.8965C135.564 11.7943 135.898 12.604 135.898 12.6921C135.898 12.7801 135.141 12.8505 134.226 12.8505C133.311 12.8505 132.554 12.7977 132.554 12.7097C132.554 12.3928 134.208 8.97775 134.332 9.10097C134.384 9.18899 134.772 9.98114 135.177 10.8965Z" fill="white"/>
<path d="M141.884 11.5302V17.4274H146.197H150.509V18.6596V19.8919H151.742H152.974V17.6034V15.315H152.27H151.566V10.474V5.63309H150.333H149.101V10.474V15.315H146.725H144.348V10.474V5.63309H143.116H141.884V11.5302Z" fill="white"/>
<path d="M154.558 11.5302V17.4274H155.685H156.829L158.114 15.579C158.818 14.5756 160.033 12.8153 160.807 11.6711L162.216 9.61147L162.268 13.5194L162.304 17.4274H163.536H164.768V11.5302V5.61549L163.606 5.6683L162.427 5.72111L159.681 9.68188L156.935 13.6426L156.882 9.62907L156.847 5.6331H155.702H154.558V11.5302Z" fill="white"/>
<path d="M170.155 5.82672C168.306 6.26681 167.197 7.51665 167.092 9.2946C166.986 10.7381 167.373 11.7591 168.341 12.5864L169.063 13.2026L167.62 15.3326L166.176 17.445L167.549 17.3922L168.905 17.3394L170.119 15.5262L171.352 13.7307H172.109H172.866V15.579V17.4274H174.098H175.33V11.5302V5.63309L173.094 5.65069C171.845 5.66829 170.542 5.73871 170.155 5.82672ZM172.866 9.68187V11.6182H172.003C170.894 11.6182 170.137 11.3366 169.803 10.8261C169.468 10.3156 169.451 9.01294 169.767 8.59046C170.119 8.11517 171.105 7.7631 172.038 7.7455H172.866V9.68187Z" fill="white"/>
<path d="M8.8896 15.667L0.0878906 24.4687L12.3223 36.7031L24.5566 48.9375L36.7382 36.7559L48.9374 24.5568L40.1004 15.7198L31.2459 6.86533L27.8661 10.2452L24.4686 13.6427L21.0712 10.2452L17.6913 6.86533L8.8896 15.667ZM21.0712 18.3428L24.4686 21.7402L27.9013 18.3076L31.3339 14.8749L36.1397 19.6806L40.9278 24.4687L32.6894 32.6895L24.4686 40.9279L16.2478 32.7071L8.00943 24.4687L12.7623 19.7158C15.3677 17.1105 17.5505 14.9629 17.6033 14.9629C17.6561 14.9629 19.2052 16.4944 21.0712 18.3428Z" fill="#A2192A"/>
<path d="M110.18 22.462C108.296 23.1133 106.73 24.9264 106.307 26.9156C105.709 29.7674 107.064 32.5663 109.652 33.781C110.514 34.1858 110.849 34.2386 112.486 34.2386C114.669 34.2386 115.496 33.9394 116.869 32.6543C117.89 31.7038 118.454 30.5947 118.647 29.1689C119.034 26.4403 117.802 23.9935 115.426 22.7612C114.651 22.3563 114.246 22.2859 112.75 22.2331C111.483 22.1979 110.761 22.2683 110.18 22.462ZM114.194 24.6272C115.69 25.3137 116.57 27.2853 116.183 29.1161C115.479 32.5487 110.972 33.3585 109.212 30.3659C108.015 28.3063 108.789 25.5602 110.814 24.6272C111.747 24.2047 113.243 24.2047 114.194 24.6272Z" fill="white"/>
<path d="M58.7603 22.9196C58.9539 23.2365 59.9573 25.1553 60.9959 27.1621C62.6506 30.3835 62.8619 30.894 62.7034 31.2461C62.4042 31.915 61.7 32.2671 60.9783 32.1614L60.3622 32.0558L60.4854 33.0592C60.5382 33.6049 60.6262 34.1154 60.679 34.1858C60.7143 34.2738 61.1719 34.3267 61.6824 34.3267C62.7915 34.3267 63.566 33.8866 64.2877 32.8128C64.5342 32.4255 65.8192 29.9082 67.1395 27.2325L69.516 22.3563H68.2309H66.9459L65.5728 25.2961C64.8158 26.9332 64.1821 28.2711 64.1645 28.3063C64.1293 28.3415 63.4252 27.0036 62.5626 25.3665L61.0135 22.3563H59.7109H58.4082L58.7603 22.9196Z" fill="white"/>
<path d="M71.2935 22.5676C71.2935 22.6908 71.135 24.4512 70.9414 26.4755C70.5189 30.6828 70.3077 31.4045 69.3043 31.9502C68.5825 32.3375 68.5825 32.3551 68.8466 33.6049L69.0226 34.4851L69.8148 34.2387C72.1736 33.5345 72.825 32.1614 73.2474 26.9684L73.4587 24.4688H75.1838H76.9266V29.3097V34.1506H78.0708H79.215V28.2535V22.3563H75.2542C72.2088 22.3563 71.2935 22.4092 71.2935 22.5676Z" fill="white"/>
<path d="M81.856 28.2711V34.1858L84.3732 34.1154C86.2216 34.0626 87.049 33.957 87.5771 33.7281C89.1262 33.0592 89.9535 31.7566 89.9535 30.0138C89.9535 28.7288 89.531 27.7254 88.7037 27.0388C87.8411 26.2995 87.1194 26.0531 85.5351 25.9298L84.1444 25.8242V24.0991V22.3563H83.0002H81.856V28.2711ZM85.8871 28.095C86.7673 28.2711 87.489 29.116 87.489 29.9434C87.489 31.2637 86.5561 32.0382 84.9366 32.0382H84.1444V30.0138V27.9894H84.7429C85.0598 27.9894 85.5879 28.0422 85.8871 28.095Z" fill="white"/>
<path d="M91.5381 28.2535V34.1506H92.7703H94.0026V28.2535V22.3563H92.7703H91.5381V28.2535Z" fill="white"/>
<path d="M96.4668 28.2711V34.1858L99.2481 34.1154C101.924 34.0626 102.047 34.045 102.945 33.5345C104.23 32.8304 104.811 31.8622 104.811 30.3659C104.811 28.94 104.265 27.9366 103.103 27.2149C102.364 26.7572 102.065 26.6868 100.516 26.6164L98.7552 26.5283V25.5073V24.4687H101.396H104.036V23.4125V22.3563H100.252H96.4668V28.2711ZM101.66 28.94C102.294 29.3625 102.54 30.3131 102.188 31.0348C101.818 31.8094 101.29 32.0382 99.8995 32.0382H98.7552V30.4011C98.7552 29.4857 98.8081 28.6936 98.8961 28.6232C99.0897 28.3943 101.22 28.6584 101.66 28.94Z" fill="white"/>
<path d="M120.583 28.2535V34.1506H121.728H122.872L122.89 31.7214C122.907 30.4011 122.89 29.1337 122.872 28.9048C122.854 28.6936 122.907 28.5175 122.995 28.5175C123.066 28.5351 124.21 29.8026 125.512 31.3341L127.889 34.133L129.35 34.1506C130.477 34.1506 130.776 34.0978 130.688 33.9218C130.6 33.8162 129.456 32.4607 128.118 30.9292C126.78 29.3977 125.688 28.0774 125.688 27.9894C125.688 27.8486 128.47 24.5744 130.072 22.8316L130.512 22.3563H129.104H127.713L125.424 24.9792C124.157 26.4403 123.066 27.6198 122.995 27.6198C122.907 27.6374 122.854 27.4261 122.872 27.1445C122.89 26.8804 122.907 25.701 122.89 24.504L122.872 22.3563H121.728H120.583V28.2535Z" fill="white"/>
<path d="M0 40.7167V48.9375H8.22079H16.4592L13.6426 46.1209L10.8261 43.322L8.2736 43.2692L5.72111 43.2164L5.6683 40.6639L5.61549 38.1114L2.81655 35.2948L0 32.4783V40.7167Z" fill="white"/>
<path d="M46.068 35.3477L43.3042 38.1114V40.7167V43.3044H40.6989H38.1112L35.4179 45.9977C33.9568 47.4764 32.7422 48.7439 32.7422 48.8143C32.7422 48.8847 36.3861 48.9375 40.8398 48.9375H48.9373V40.7519C48.9373 36.2454 48.9197 32.5663 48.8845 32.5663C48.8669 32.5663 47.5995 33.8162 46.068 35.3477Z" fill="white"/>
<path d="M59.3763 40.3998C58.9362 40.7167 58.6017 41.7025 58.7426 42.2834C58.8834 42.8291 59.4467 43.4276 59.9572 43.5508C60.4325 43.6741 61.6119 43.2516 61.6119 42.9523C61.6119 42.8291 61.4535 42.8643 61.2247 43.0227C59.9924 43.8853 58.6722 42.4418 59.3939 41.0336C59.834 40.2062 60.9078 40.0654 60.9078 40.8575C60.9078 41.0336 61.031 41.192 61.1718 41.192C61.4887 41.192 61.5063 40.9455 61.2599 40.4702C61.031 40.0478 59.9396 40.0126 59.3763 40.3998Z" fill="white"/>
<path d="M62.3335 40.6991C62.3335 41.2448 62.3511 41.2624 62.5272 40.8751C62.6504 40.6463 62.8792 40.4878 63.1433 40.4878C63.5306 40.4878 63.5482 40.5407 63.5482 41.8785C63.5482 43.0579 63.4953 43.2868 63.2489 43.3572C63.0729 43.41 63.3369 43.4452 63.8122 43.4452C64.4987 43.4628 64.6044 43.4276 64.3051 43.3044C63.9354 43.146 63.9002 43.0227 63.9002 41.8081V40.4878H64.4283C64.7628 40.4878 64.9564 40.5759 64.9564 40.7343C64.9564 40.8751 65.0444 41.0512 65.1325 41.104C65.2381 41.1744 65.3085 40.9807 65.3085 40.6815V40.1358H63.8122H62.3159L62.3335 40.6991Z" fill="white"/>
<path d="M66.7699 40.3998C66.3298 40.7167 65.9953 41.7025 66.1361 42.2834C66.3826 43.2516 67.298 43.7797 68.2309 43.4804C69.0055 43.2164 69.3576 42.6883 69.3576 41.7905C69.3576 40.435 67.8613 39.6429 66.7699 40.3998ZM68.4422 40.6639C68.7238 40.9279 68.8295 41.2272 68.8295 41.7729C68.8295 42.7411 68.4422 43.3044 67.7732 43.3044C66.6642 43.3044 66.1185 41.5969 66.9811 40.7519C67.4916 40.2238 67.9317 40.1886 68.4422 40.6639Z" fill="white"/>
<path d="M70.2907 40.3822C70.5195 40.5583 70.59 40.8751 70.59 41.8609C70.59 42.8643 70.5371 43.146 70.2907 43.2868C70.0443 43.4276 70.1147 43.4628 70.678 43.4628C71.0653 43.4628 71.2765 43.41 71.1709 43.3572C71.0124 43.3044 70.942 42.8643 70.942 42.0194L70.9596 40.7519L71.4701 41.8433C71.7518 42.4594 72.0862 42.9523 72.2271 42.9523C72.3503 42.9523 72.6496 42.5123 72.8608 41.9842C73.0896 41.456 73.3361 41.016 73.4241 41.016C73.5121 41.016 73.5825 41.4913 73.5825 42.0722C73.5825 42.8819 73.5121 43.146 73.2833 43.2868C73.0368 43.4276 73.1425 43.4628 73.7586 43.4628C74.3747 43.4628 74.4803 43.4276 74.2515 43.2868C73.9874 43.146 73.9346 42.8643 73.9346 41.8609C73.9346 40.8751 74.005 40.5583 74.2515 40.3822C74.5155 40.171 74.4803 40.1534 73.9346 40.1358C73.3361 40.1358 73.2833 40.1886 72.8256 41.2272C72.3679 42.2482 72.3151 42.3186 72.0862 42.0018C71.9454 41.8257 71.699 41.3328 71.5229 40.9103C71.2413 40.2062 71.1533 40.1358 70.59 40.1358C70.0443 40.1534 70.009 40.171 70.2907 40.3822Z" fill="white"/>
<path d="M75.6593 40.3294C75.3249 40.523 75.2193 41.192 75.5185 41.192C75.6241 41.192 75.7826 40.9983 75.8706 40.7519C76.1698 39.9773 77.138 40.2942 77.3493 41.2272C77.4549 41.6849 77.4197 41.7201 76.8564 41.7201C75.4833 41.7201 74.6912 42.6707 75.5185 43.3396C75.9938 43.7269 76.1698 43.7269 76.8388 43.3748C77.1732 43.1988 77.3845 43.1812 77.4197 43.2868C77.5077 43.5332 78.3351 43.5332 78.3351 43.3044C78.3351 43.1988 78.2118 43.1284 78.071 43.1284C77.8598 43.1284 77.807 42.8819 77.807 41.9313C77.807 40.9807 77.7365 40.6639 77.4901 40.435C77.1204 40.1006 76.1346 40.0478 75.6593 40.3294ZM77.4021 42.1778C77.5253 42.4946 76.8036 43.3044 76.4163 43.3044C75.5889 43.2868 75.4481 42.1602 76.2755 42.0369C77.138 41.9137 77.2965 41.9313 77.4021 42.1778Z" fill="white"/>
<path d="M78.8809 40.6991C78.8809 41.2272 78.8985 41.2448 79.0393 40.8751C79.1449 40.6111 79.3562 40.4879 79.6554 40.4879C80.0955 40.4879 80.0955 40.5055 80.0955 41.8961C80.0955 43.058 80.0427 43.3044 79.8139 43.3044C79.673 43.3044 79.585 43.3748 79.6378 43.4452C79.6906 43.5156 80.0075 43.5509 80.3772 43.5156C80.8877 43.4452 80.9581 43.3924 80.7292 43.2692C80.5004 43.146 80.4476 42.8291 80.4476 41.8081V40.4879H80.9757C81.3102 40.4879 81.5038 40.5759 81.5038 40.7343C81.5038 40.8751 81.5918 41.0512 81.6798 41.104C81.7854 41.1744 81.8559 40.9808 81.8559 40.6815V40.1358H80.3596H78.8633L78.8809 40.6991Z" fill="white"/>
<path d="M83.0883 40.5759C82.5426 41.1568 82.4898 42.389 83.0003 42.9523C84.0917 44.167 85.9049 43.4452 85.9049 41.8081C85.9049 40.7871 85.2712 40.1534 84.2149 40.1358C83.6868 40.1358 83.4052 40.2414 83.0883 40.5759ZM84.9719 40.6991C85.8169 41.4912 85.3416 43.3044 84.2854 43.3044C83.1763 43.3044 82.6658 41.5969 83.5284 40.7519C84.0565 40.2062 84.4438 40.2062 84.9719 40.6991Z" fill="white"/>
<path d="M87.1724 40.3822C87.4189 40.5583 87.4541 40.7871 87.3661 41.5617C87.2428 42.6883 87.0492 43.1284 86.6795 43.1284C86.3099 43.1284 86.4683 43.5508 86.8556 43.6213C87.2604 43.7093 87.6653 42.6531 87.6653 41.456V40.4879H88.3695H89.0736V41.8081C89.0736 42.8643 89.0208 43.146 88.7743 43.2868C88.5279 43.4276 88.6335 43.4628 89.2496 43.4628C89.6897 43.4452 89.901 43.41 89.7425 43.3572C89.4785 43.2868 89.4257 43.058 89.4257 41.8961C89.4257 40.7519 89.4785 40.4702 89.7425 40.3294C89.9538 40.1886 89.6193 40.1534 88.4575 40.1534C87.1196 40.1534 86.926 40.1886 87.1724 40.3822Z" fill="white"/>
<path d="M91.0974 40.5935C90.4989 41.2272 90.4989 42.389 91.0622 43.058C91.5727 43.6565 92.7169 43.7445 93.2803 43.234C94.0548 42.5299 94.0548 41.0688 93.2803 40.435C92.6993 39.9598 91.6079 40.0302 91.0974 40.5935ZM92.9458 40.6287C93.9316 41.4208 93.3683 43.3924 92.1712 43.2692C91.4143 43.1988 90.8862 42.1602 91.1678 41.3328C91.5199 40.3646 92.2417 40.0654 92.9458 40.6287Z" fill="white"/>
<path d="M94.7593 40.3294C95.0057 40.4702 95.0585 40.7519 95.0585 41.8961C95.0585 43.0579 95.0057 43.2868 94.7593 43.3572C94.5832 43.41 94.8473 43.4452 95.3226 43.4452C95.8155 43.4452 96.0619 43.41 95.9035 43.3572C95.6394 43.2868 95.5866 43.0579 95.5866 41.8785V40.4878H96.1675C96.6076 40.4878 96.8189 40.5935 96.9597 40.8751C97.1357 41.2624 97.1533 41.2448 97.1533 40.6991L97.1709 40.1358H95.8155C94.7945 40.1534 94.5304 40.1886 94.7593 40.3294Z" fill="white"/>
<path d="M98.1037 40.3294C98.3501 40.4702 98.403 40.7519 98.403 41.8961C98.403 43.0579 98.3501 43.2868 98.1037 43.3572C97.9277 43.41 98.1389 43.4452 98.579 43.4628C99.1071 43.4628 99.2831 43.4276 99.1247 43.322C98.9311 43.1988 99.0543 42.9523 99.7408 42.1426L100.603 41.1392L100.656 42.0898C100.709 42.8291 100.639 43.0756 100.41 43.2516C100.146 43.4452 100.199 43.4804 100.885 43.4804C101.501 43.4628 101.589 43.4276 101.36 43.2868C101.096 43.146 101.043 42.8643 101.043 41.8609C101.043 40.8751 101.114 40.5583 101.36 40.3822C101.624 40.171 101.572 40.1534 100.885 40.1358C100.216 40.1358 100.146 40.171 100.392 40.347C100.639 40.5583 100.586 40.6815 99.8112 41.5441L98.9487 42.5122L98.9311 41.5265C98.9311 40.9983 99.0191 40.4702 99.1423 40.347C99.3007 40.1886 99.1775 40.1358 98.579 40.1358C97.9453 40.1534 97.8573 40.1886 98.1037 40.3294Z" fill="white"/>
<path d="M102.505 40.3294C102.698 40.435 102.804 40.7167 102.804 41.104C102.804 41.7553 103.297 42.4242 103.754 42.4242C103.895 42.4242 104.212 42.3538 104.459 42.2482C104.899 42.0898 104.916 42.1074 104.916 42.6883C104.916 43.1107 104.828 43.3044 104.617 43.3572C104.441 43.41 104.705 43.4452 105.18 43.4452C105.673 43.4452 105.92 43.41 105.761 43.3572C105.497 43.2868 105.444 43.0579 105.444 41.8961C105.444 40.7519 105.497 40.4702 105.761 40.3294C105.99 40.1886 105.902 40.1534 105.286 40.1358C104.67 40.1358 104.547 40.1886 104.705 40.347C104.828 40.4702 104.916 40.8575 104.916 41.2096C104.916 41.7553 104.846 41.8785 104.476 41.9665C103.79 42.1426 103.332 41.8081 103.332 41.1392C103.332 40.8223 103.42 40.4702 103.543 40.347C103.702 40.1886 103.578 40.1358 102.98 40.1358C102.346 40.1534 102.258 40.1886 102.505 40.3294Z" fill="white"/>
<path d="M107.046 40.5759C105.814 42.1602 107.099 44.1494 108.877 43.41C109.229 43.2516 109.475 43.0579 109.405 42.9523C109.335 42.8291 109.159 42.8643 108.912 43.0403C108.701 43.1812 108.366 43.3044 108.155 43.3044C107.715 43.3044 107.029 42.5474 107.029 42.0546C107.029 41.7553 107.169 41.7201 108.278 41.7201H109.528L109.405 41.2272C109.211 40.4702 108.807 40.1358 108.067 40.1358C107.574 40.1358 107.328 40.2414 107.046 40.5759ZM108.613 40.6639C109.247 41.2976 109.071 41.5441 107.997 41.5441C106.923 41.5441 106.817 41.3856 107.469 40.7519C107.979 40.2238 108.155 40.2062 108.613 40.6639Z" fill="white"/>
<path d="M110.813 40.5759C109.88 41.4912 110.426 43.3044 111.694 43.5508C112.257 43.6565 113.031 43.3572 113.155 42.9875C113.19 42.8467 113.049 42.8643 112.715 43.0756C111.958 43.498 111.289 43.2692 110.972 42.4946C110.532 41.456 111.113 40.3294 112.081 40.3118C112.345 40.3118 112.486 40.435 112.521 40.6991C112.591 41.1744 113.014 41.3328 113.014 40.8927C113.014 40.3822 112.662 40.1358 111.922 40.1358C111.43 40.1358 111.113 40.259 110.813 40.5759Z" fill="white"/>
<path d="M114.123 40.3822C114.352 40.5583 114.422 40.8751 114.422 41.8609C114.422 42.8643 114.37 43.146 114.123 43.2868C113.877 43.4276 113.982 43.4628 114.598 43.4628C115.214 43.4628 115.32 43.4276 115.091 43.2868C114.704 43.0756 114.651 41.8961 115.003 41.8961C115.126 41.8961 115.479 42.2482 115.795 42.6883C116.235 43.3044 116.464 43.4804 116.834 43.4804C117.256 43.4628 117.292 43.4452 117.01 43.2868C116.834 43.1812 116.464 42.7763 116.183 42.389C115.672 41.6849 115.672 41.6673 115.954 41.1744C116.13 40.8927 116.394 40.6639 116.57 40.6639C116.746 40.6639 116.887 40.5407 116.887 40.3998C116.887 40.083 116.447 40.0478 116.183 40.347C116.077 40.4702 115.831 40.8399 115.637 41.1568C115.232 41.8433 114.88 41.8257 114.81 41.104C114.757 40.7695 114.845 40.5231 115.056 40.3646C115.338 40.171 115.267 40.1358 114.581 40.1358C113.894 40.1534 113.841 40.171 114.123 40.3822Z" fill="white"/>
<path d="M118.225 40.4174C117.872 40.7519 117.855 41.192 118.189 41.192C118.33 41.192 118.471 41.016 118.506 40.7871C118.629 39.9421 120.055 40.4702 120.055 41.368C120.055 41.6497 119.932 41.7201 119.386 41.7201C118.489 41.7201 117.943 42.125 117.943 42.7939C117.943 43.5508 118.612 43.8325 119.439 43.4276C119.774 43.2692 120.055 43.2164 120.055 43.3044C120.055 43.41 120.302 43.4804 120.583 43.4804C120.883 43.4804 121.111 43.3924 121.111 43.3044C121.111 43.1988 120.953 43.1284 120.759 43.1284C120.443 43.1284 120.407 43.0051 120.407 41.9137C120.407 40.4702 120.179 40.1358 119.175 40.1358C118.788 40.1358 118.383 40.259 118.225 40.4174ZM120.02 42.3714C120.126 43.058 118.929 43.5861 118.489 43.058C118.189 42.7059 118.524 42.125 119.034 42.0193C119.721 41.8785 119.967 41.9665 120.02 42.3714Z" fill="white"/>
<path d="M122.379 40.4174C121.886 40.7519 121.886 41.3152 122.361 41.8257C122.696 42.1954 122.713 42.2482 122.449 42.7411C122.291 43.0403 122.027 43.322 121.868 43.3748C121.692 43.41 121.798 43.4452 122.08 43.4276C122.502 43.3924 122.678 43.2516 122.96 42.7235C123.206 42.2482 123.417 42.0722 123.664 42.1074C124.139 42.1778 124.245 42.9347 123.822 43.2516C123.541 43.4452 123.611 43.4804 124.298 43.4628C124.72 43.4452 124.931 43.41 124.773 43.3572C124.509 43.2868 124.456 43.058 124.456 41.8961C124.456 40.7519 124.509 40.4703 124.773 40.3294C125.002 40.1886 124.79 40.1534 123.928 40.1358C123.153 40.1358 122.643 40.2238 122.379 40.4174ZM124.016 41.104C124.016 41.7201 123.963 41.8081 123.576 41.8609C122.907 41.9313 122.449 41.5265 122.59 40.9631C122.696 40.5055 123.03 40.3294 123.664 40.3646C123.945 40.3998 124.016 40.5231 124.016 41.104Z" fill="white"/>
<path d="M127.326 40.3294C127.572 40.4702 127.625 40.7519 127.625 41.8081C127.625 42.8643 127.572 43.146 127.326 43.2868C127.079 43.4276 127.167 43.4628 127.783 43.4804C128.47 43.4804 128.54 43.4452 128.259 43.2516C127.906 43.0051 127.924 42.0546 128.276 41.9489C128.382 41.9137 128.716 42.2306 129.033 42.6707C129.403 43.234 129.702 43.4804 129.984 43.4804C130.353 43.4804 130.336 43.4276 129.702 42.7411C129.332 42.3362 129.033 41.9137 129.033 41.7905C129.033 41.3152 129.456 40.6639 129.772 40.6639C129.948 40.6639 130.089 40.5407 130.089 40.3822C130.089 39.9069 129.508 40.1886 129.015 40.9279C128.751 41.3152 128.435 41.6321 128.294 41.6321C127.924 41.6321 127.906 40.6639 128.276 40.3822C128.558 40.171 128.505 40.1534 127.801 40.1534C127.185 40.1534 127.079 40.1886 127.326 40.3294Z" fill="white"/>
<path d="M131.727 40.3822C131.991 40.5935 132.026 40.7871 131.92 41.5617C131.779 42.6883 131.586 43.1284 131.216 43.1284C130.846 43.1284 131.005 43.5508 131.392 43.6213C131.797 43.7093 132.202 42.6531 132.202 41.456V40.4879H132.906H133.61V41.8081C133.61 42.8643 133.557 43.146 133.311 43.2868C133.065 43.4276 133.17 43.4628 133.786 43.4628C134.226 43.4452 134.438 43.41 134.279 43.3572C134.015 43.2868 133.962 43.0756 133.962 41.9489C133.962 40.8927 134.033 40.5759 134.279 40.3822C134.526 40.1886 134.35 40.1534 132.994 40.1534C131.621 40.1534 131.445 40.171 131.727 40.3822Z" fill="white"/>
<path d="M135.423 40.3294C135.669 40.4703 135.722 40.7519 135.722 41.8961C135.722 43.058 135.669 43.2868 135.423 43.3572C135.247 43.41 135.458 43.4452 135.898 43.4628C136.426 43.4628 136.602 43.4276 136.444 43.322C136.25 43.1988 136.338 42.9875 136.937 42.2658C137.359 41.7729 137.764 41.368 137.852 41.368C137.94 41.368 138.01 41.7553 138.01 42.2482C138.01 42.8819 137.922 43.1636 137.711 43.2868C137.465 43.4276 137.57 43.4628 138.186 43.4628C138.803 43.4628 138.908 43.4276 138.679 43.2868C138.415 43.146 138.362 42.8643 138.362 41.8609C138.362 40.8751 138.433 40.5583 138.679 40.3822C138.943 40.171 138.891 40.1534 138.204 40.1358C137.553 40.1358 137.465 40.171 137.658 40.3998C137.834 40.6111 137.729 40.8223 137.095 41.5617L136.338 42.4594L136.285 41.5441C136.25 41.0336 136.32 40.5231 136.444 40.3822C136.62 40.171 136.514 40.1358 135.88 40.1358C135.264 40.1534 135.176 40.1886 135.423 40.3294Z" fill="white"/>
<path d="M139.824 40.3294C140.07 40.4703 140.123 40.7519 140.123 41.8961C140.123 43.058 140.07 43.2868 139.824 43.3572C139.648 43.41 139.859 43.4452 140.299 43.4452C140.739 43.4452 140.986 43.41 140.88 43.3572C140.739 43.322 140.651 42.9699 140.651 42.5827V41.8961H141.531H142.412V42.5123C142.412 42.8995 142.306 43.1812 142.112 43.2868C141.866 43.4276 141.972 43.4628 142.588 43.4628C143.204 43.4628 143.309 43.4276 143.081 43.2868C142.816 43.146 142.764 42.8643 142.764 41.8609C142.764 40.8751 142.834 40.5583 143.081 40.3822C143.345 40.171 143.292 40.1534 142.605 40.1358C141.919 40.1358 141.848 40.171 142.13 40.3646C142.341 40.5231 142.429 40.7695 142.376 41.104C142.324 41.5969 142.271 41.6321 141.496 41.6849L140.651 41.7377V41.1568C140.651 40.8223 140.739 40.4703 140.863 40.347C141.021 40.1886 140.898 40.1358 140.299 40.1358C139.665 40.1534 139.577 40.1886 139.824 40.3294Z" fill="white"/>
<path d="M144.225 40.3294C144.471 40.4702 144.524 40.7519 144.524 41.8961C144.524 43.1108 144.489 43.3044 144.225 43.3044C143.961 43.322 143.943 43.3396 144.172 43.4628C144.507 43.6565 145.528 43.498 145.211 43.3044C145.052 43.1988 145.246 42.8643 145.862 42.1426L146.725 41.1392L146.777 42.0898C146.83 42.8291 146.76 43.0755 146.531 43.2516C146.267 43.4452 146.32 43.4804 147.006 43.4804C147.622 43.4628 147.71 43.4276 147.482 43.2868C147.217 43.146 147.165 42.8643 147.165 41.8609C147.165 40.8751 147.235 40.5583 147.482 40.3822C147.746 40.171 147.693 40.1534 147.006 40.1358C146.337 40.1358 146.267 40.171 146.513 40.347C146.777 40.5583 146.725 40.6639 145.932 41.544L145.07 42.5122L145.052 41.5264C145.052 40.9983 145.14 40.4702 145.263 40.347C145.422 40.1886 145.299 40.1358 144.7 40.1358C144.066 40.1534 143.978 40.1886 144.225 40.3294Z" fill="white"/>
<path d="M148.802 40.3822C149.031 40.5583 149.101 40.8751 149.101 41.8609C149.101 42.8643 149.048 43.146 148.802 43.2868C148.555 43.4276 148.661 43.4628 149.277 43.4628C149.717 43.4452 149.928 43.41 149.77 43.3572C149.541 43.3044 149.453 43.0931 149.453 42.5826C149.453 41.7905 149.84 41.6321 150.175 42.2834C150.545 43.0227 151.09 43.4804 151.548 43.4628C151.794 43.4452 151.882 43.41 151.742 43.3572C151.601 43.322 151.213 42.9347 150.897 42.5122C150.333 41.7553 150.316 41.7377 150.597 41.2096C150.756 40.8751 151.002 40.6639 151.213 40.6639C151.425 40.6639 151.566 40.5407 151.566 40.3822C151.566 39.8365 150.791 40.1886 150.386 40.9279C150.175 41.3152 149.893 41.6321 149.77 41.6321C149.4 41.6321 149.383 40.6287 149.735 40.3646C150.016 40.171 149.946 40.1358 149.259 40.1358C148.573 40.1534 148.52 40.171 148.802 40.3822Z" fill="white"/>
<path d="M152.938 40.3294C152.551 40.5407 152.516 41.192 152.868 41.192C153.009 41.192 153.15 41.016 153.185 40.7871C153.291 39.9774 154.435 40.3118 154.664 41.2272C154.769 41.7025 154.734 41.7201 154.153 41.7201C152.921 41.7201 152.217 42.389 152.639 43.146C152.886 43.6213 153.431 43.7093 154.065 43.3924C154.435 43.2164 154.664 43.1812 154.699 43.3044C154.787 43.5333 155.561 43.5333 155.702 43.3044C155.755 43.1988 155.649 43.1284 155.456 43.1284C155.121 43.1284 155.086 43.0228 155.086 41.9137C155.086 41.0336 155.016 40.6111 154.804 40.4174C154.505 40.1006 153.396 40.0478 152.938 40.3294ZM154.699 42.2834C154.769 42.6179 154.083 43.3044 153.66 43.3044C153.273 43.3044 152.903 42.8467 153.044 42.5123C153.255 41.9313 154.593 41.7377 154.699 42.2834Z" fill="white"/>
</svg>
