<svg width="16" height="21" viewBox="0 0 16 21" fill="none" xmlns="http://www.w3.org/2000/svg">
<path fill-rule="evenodd" clip-rule="evenodd" d="M7.23861 0.0132561C7.17711 0.0229311 6.97586 0.0507672 6.79138 0.0750367C4.40292 0.389434 2.25947 1.74816 1.00377 3.74379C0.729883 4.17909 0.378849 4.97773 0.243024 5.47456C0.0334506 6.24105 -0.0199045 6.70463 0.00607973 7.53287C0.037565 8.53768 0.185868 9.22334 0.623575 10.3884C1.65767 13.1406 4.12385 16.781 7.2815 20.2164C7.58996 20.552 7.87757 20.8656 7.92064 20.9133L7.99891 21L8.07717 20.9133C8.1202 20.8656 8.40786 20.552 8.71631 20.2164C11.874 16.781 14.3401 13.1406 15.3742 10.3884C15.8119 9.22334 15.9602 8.53768 15.9917 7.53287C16.0104 6.93765 15.9992 6.67741 15.9396 6.3235C15.6644 4.68965 14.9195 3.31125 13.7037 2.18579C12.483 1.05586 11.0929 0.389885 9.31825 0.0849167C8.97781 0.0264157 7.48164 -0.025157 7.23861 0.0132561ZM8.69212 4.81038C9.65041 5.01967 10.4913 5.77936 10.7527 6.67196C10.876 7.09282 10.8573 7.71469 10.7087 8.13613C10.4403 8.89734 9.77331 9.52925 8.96234 9.79051C7.4396 10.2811 5.78215 9.53457 5.28912 8.13613C5.19225 7.86141 5.17006 7.72002 5.16872 7.36889C5.16586 6.6292 5.40585 6.06772 5.94856 5.54458C6.66687 4.85212 7.66281 4.5856 8.69212 4.81038Z" fill="white"/>
</svg>
