<svg width="64" height="63" viewBox="0 0 64 63" fill="none" xmlns="http://www.w3.org/2000/svg">
<path d="M0.0264056 23.881C0.0264056 22.8266 -0.171667 21.1956 0.517162 20.5476C1.74686 19.8177 3.12327 19.335 4.58977 18.7218C4.58977 17.5215 4.52313 15.9267 4.60049 14.3389C5.1367 3.33448 19.9535 -4.23627 28.9089 2.87681C30.5598 4.18811 31.9193 4.82755 33.9455 3.21122C39.8498 -1.49866 46.0053 -0.623288 51.9036 3.22331C57.3576 6.78016 59.541 11.9478 58.4287 18.4291C58.3978 18.6094 58.4505 18.8041 58.4786 19.1897C59.2957 19.2437 60.2268 19.0955 60.9573 19.4112C61.7235 19.7424 62.7166 20.4276 62.8667 21.1195C63.1654 22.4958 63.2548 24.0786 62.8378 25.3873C62.5973 26.1419 61.2319 26.9368 60.3153 27.0119C54.8296 27.4613 54.6539 27.3572 53.4892 32.9061C52.6812 36.7554 52.5313 40.7378 51.8934 44.629C50.8168 51.1959 47.2686 56.373 42.3948 60.7248C41.7555 61.2956 41.0339 61.9405 40.2464 62.1392C39.1206 62.4235 37.5583 62.7976 36.8162 62.2594C36.1071 61.7453 35.993 60.1128 35.993 58.9718C35.993 54.7835 36.3553 50.5846 36.1421 46.4121C36.0606 44.8179 34.9883 43.1527 34.0285 41.7523C32.3712 39.3343 30.6886 39.522 29.1167 41.9635C25.8374 47.057 26.0359 52.502 27.1532 58.1475C27.269 58.733 27.2788 59.353 27.2105 59.9778C27.0481 61.4637 25.6726 62.5155 24.2019 62.2482C23.3365 62.091 22.5142 61.7934 21.9198 61.3363C14.8736 55.9177 11.3898 48.5835 10.6986 39.7374C10.4315 36.3194 9.5046 32.9503 8.83636 29.5672C8.47525 27.7391 7.30635 27.0774 5.47616 27.3138C4.52744 27.4363 3.53967 27.4211 2.58686 27.314C0.457277 27.0746 0.0263424 26.141 0.0264056 23.881C5.2933 23.8107 11.3939 23.881 16.1867 23.881C16.1791 23.5474 16.1943 24.2146 16.1867 23.881C11.2347 23.881 4.97838 23.881 0.0264056 23.881ZM32.7513 36.2683C34.1145 37.1163 35.839 37.6782 36.7771 38.8629C40.4229 43.4673 41.6787 48.7699 40.5698 54.5907C40.4656 55.1381 40.5559 55.7226 40.5559 56.9608C44.3021 53.4643 46.8213 49.9558 47.6586 45.6189C48.8328 39.5375 49.5896 33.3756 50.5421 27.1357C49.0608 27.1357 47.465 27.1357 45.5449 27.1357C46.0039 29.8879 45.2314 31.6738 42.1571 31.4387C41.9333 31.4216 41.5259 31.648 41.4763 31.8339C40.6494 34.9347 38.1308 34.1583 36.0204 34.2011C33.1302 34.2596 30.2293 34.3539 27.3492 34.1734C24.9025 34.02 21.7013 35.5107 20.6207 31.6168C20.5877 31.4981 20.2832 31.3654 20.1227 31.3847C17.1198 31.7449 16.3959 29.8126 16.3324 27.5621C14.9259 27.5621 13.7459 27.5621 13.0251 27.5621C13.6504 32.3878 14.2621 37.0339 14.8524 41.6826C15.6125 47.669 18.0275 52.7613 22.8794 57.0473C22.064 48.0556 22.6682 44.9191 25.8819 39.7025C27.3787 37.2728 29.3482 35.8815 32.7513 36.2683ZM15.514 19.3316C16.837 17.2773 17.4962 14.4879 20.7741 14.5821C20.8434 14.5841 20.8718 14.1644 21.0046 14.0862C22.0409 13.4755 23.0732 12.4551 24.1533 12.3948C27.8978 12.1857 31.6648 12.2136 35.4159 12.3512C37.6981 12.4349 40.6668 11.1637 41.5863 14.8286C41.6252 14.9835 42.0849 15.1479 42.3264 15.1194C45.378 14.7599 45.7962 16.7448 45.6557 19.1736C48.6262 19.1736 51.382 19.1736 54.4665 19.1736C54.4665 17.0621 54.7122 15.0416 54.4213 13.1015C53.4774 6.80644 43.4369 0.801759 36.2607 6.29338C32.0532 9.51312 31.2734 9.36156 26.8564 6.26502C26.4626 5.98895 26.0591 5.72486 25.6472 5.47663C21.7829 3.14774 16.6913 3.8336 12.5198 7.23993C8.83556 10.2484 7.61579 14.6719 9.32235 19.3401C11.1523 19.3401 13.0679 19.3401 15.514 19.3316ZM26.284 16.3267C25.7856 16.7448 24.8658 17.1517 24.8543 17.5828C24.7446 21.6908 24.7889 25.8029 24.7889 30.0492C29.0853 30.0492 33.0663 30.0492 37.1322 30.0492C37.1322 25.4159 37.1322 20.9579 37.1322 16.323C33.5621 16.323 30.2002 16.323 26.284 16.3267ZM40.9138 25.6774C41.0282 26.1562 41.1425 26.6349 41.2569 27.1137C41.4139 27.0865 41.571 27.0593 41.7281 27.0321C41.7281 24.5686 41.7281 22.1051 41.7281 19.6416C41.456 19.6371 41.1839 19.6326 40.9118 19.6281C40.9118 21.4744 40.9118 23.3207 40.9138 25.6774ZM20.9784 26.9817C20.9784 24.5306 20.9784 22.0795 20.9784 19.6284C20.6663 19.635 20.3542 19.6417 20.0421 19.6483C20.2061 22.0616 20.3701 24.4749 20.9784 26.9817Z" fill="#111214"/>
</svg>
