<svg width="56" height="62" viewBox="0 0 56 62" fill="none" xmlns="http://www.w3.org/2000/svg">
<path d="M2.92967 12.0517C6.01938 12.242 8.96019 12.6725 9.61867 16.5574C12.9289 15.0441 15.0566 16.4864 16.7918 18.6522C18.5263 18.2723 20.1451 17.6756 21.7678 17.6644C22.5819 17.6588 23.4034 18.7193 24.2215 19.2976C23.546 19.9122 22.9607 20.8853 22.18 21.0815C18.0722 22.1143 16.341 24.8348 17.699 28.7728C17.9464 29.4903 18.9086 30.1572 19.6894 30.4465C20.7198 30.8283 21.897 30.8126 23.0107 30.9706C25.1586 31.2754 26.2063 30.4104 26.1147 28.1772C25.9938 25.2316 26.1222 22.3652 28.4049 20.0514C31.1801 17.2383 33.9239 16.8532 37.7711 18.2817C40.9593 17.2886 43.1623 16.6625 45.3155 15.8965C45.9965 15.6542 46.7115 15.1557 47.1231 14.5716C48.5553 12.5388 50.4441 11.8108 52.7496 12.5646C54.9579 13.2866 55.9736 14.9911 55.953 17.3141C55.9372 19.0975 56.0238 20.886 55.9169 22.6633C55.7175 25.9819 53.7874 28.187 50.681 29.2026C49.3939 29.6234 48.3251 30.7541 47.0326 31.1081C42.3604 32.388 37.6559 33.5728 32.9159 34.5661C31.7399 34.8125 30.3857 34.1965 29.1113 33.9899C28.521 33.8942 27.829 33.5924 27.3479 33.7884C23.2879 35.4425 19.5349 34.6353 15.781 32.7395C14.7983 32.2432 13.3773 32.656 12.3405 32.2181C9.03432 30.8217 5.68845 29.4312 2.6247 27.5936C1.45006 26.8891 0.536999 25.0548 0.314639 23.6107C-0.0665551 21.135 -0.139081 18.5013 0.30793 16.0525C0.551987 14.7155 2.12868 13.6217 3.02781 12.225C2.95124 12.0317 2.92967 12.0517 2.92967 12.0517ZM37.597 30.0139C39.247 27.7797 38.9933 25.2465 37.7149 23.2239C37.0169 22.1196 34.8106 21.2246 33.5037 21.4587C32.2008 21.692 30.3112 23.3528 30.1682 24.5636C29.4597 30.5629 29.5038 31.8467 35.5393 30.6204C36.0875 30.509 36.6288 30.364 37.597 30.0139ZM13.6708 27.8178C13.7008 26.5131 13.7541 25.2085 13.7566 23.9039C13.764 19.9062 13.7564 19.9062 9.65447 19.0958C9.65447 20.9845 9.78521 22.8566 9.62445 24.7033C9.37049 27.6208 10.762 28.5684 13.6708 27.8178ZM42.3155 27.3288C43.0035 27.6334 43.8446 28.3406 44.3446 28.1506C45.1477 27.8454 46.1415 27.0382 46.3082 26.2792C46.6208 24.8555 46.6365 23.2605 46.3128 21.8424C46.1154 20.978 45.0535 20.311 44.3799 19.5553C43.6937 20.294 42.58 20.9477 42.4128 21.7895C42.0918 23.4057 42.3076 25.1286 42.3155 27.3288ZM5.89735 18.1283C5.59799 17.4257 5.29862 16.7231 4.99926 16.0206C4.68075 16.1641 4.26662 16.225 4.05957 16.4648C2.8948 17.8135 3.97193 23.8227 5.898 25.1454C5.898 22.8238 5.898 20.7345 5.89735 18.1283ZM52.1702 21.2229C52.1702 19.4888 52.1702 17.7548 52.1702 16.0207C51.7417 16.0187 51.3131 16.0167 50.8846 16.0147C49.4811 18.8659 50.4394 21.9113 50.2689 24.8639C50.5959 24.9432 50.9229 25.0226 51.25 25.1019C51.5564 23.9834 51.8628 22.8649 52.1702 21.2229Z" fill="#111214"/>
<path d="M3.55059 48.1302C0.499327 45.6316 -0.565743 40.518 1.23346 37.0051C2.79842 33.9496 6.47032 33.2062 9.7286 34.5477C12.9045 35.8552 16.3483 36.6397 19.7471 37.2487C25.2569 38.2358 30.8555 38.3288 36.3689 37.3099C39.7629 36.6827 43.238 35.925 46.356 34.5162C50.3634 32.7056 55.1153 34.8255 55.4248 39.2208C55.6461 42.3645 56.1516 45.7238 52.6579 47.9372C52.5952 48.108 52.6143 48.0808 52.3921 48.0836C50.7969 48.0969 49.4039 47.9617 48.0551 48.1476C45.0118 48.5669 41.9901 49.1439 38.961 49.6652C38.8848 49.6783 38.8231 49.7863 38.7583 49.8536C35.3186 53.425 31.6779 52.8979 28.0192 50.3375C22.6193 53.558 20.0397 53.1367 16.0916 48.422C14.3209 50.5784 12.385 49.9805 10.3571 48.8147C9.70056 48.4373 8.91597 48.1394 8.17086 48.0893C6.62245 47.9851 5.06126 48.0709 3.51494 48.093C3.52456 48.1074 3.55059 48.1302 3.55059 48.1302ZM22.93 48.6797C26.2621 47.5157 26.9039 45.8325 25.6062 41.5044C23.6318 41.3331 21.6259 41.159 19.6448 40.9871C18.7181 46.258 19.2444 47.6219 22.93 48.6797ZM32.6457 41.354C31.833 41.4346 31.0204 41.5151 30.0805 41.6083C30.0824 44.0303 29.029 46.599 31.5833 48.0628C32.5069 48.5921 34.294 48.598 35.1719 48.0368C37.6744 46.437 36.6953 43.8244 36.665 41.3344C35.3679 41.3344 34.2722 41.3344 32.6457 41.354ZM4.13151 40.6403C4.39556 41.8734 4.52692 43.1658 5.03005 44.2921C5.13706 44.5316 7.30269 44.2565 7.32713 44.0657C7.58936 42.0186 7.61197 39.9407 7.70025 37.8713C6.77385 37.9507 5.73436 37.8046 4.96238 38.1919C4.47907 38.4343 4.39839 39.4794 4.13151 40.6403ZM48.0623 38.5742C48.0548 39.5067 48.0283 40.4395 48.0441 41.3715C48.0689 42.8444 47.7929 44.7118 49.9832 44.6791C52.0908 44.6476 51.9488 42.8363 51.9383 41.3308C51.9338 40.682 52.0295 39.955 51.7781 39.4002C51.0551 37.8048 50.0603 36.6147 48.0623 38.5742ZM11.8843 44.9632C12.9071 45.5205 13.9299 46.0778 15.1489 46.7421C15.8446 39.6053 15.8442 39.6047 11.731 39.585C11.731 41.2298 11.731 42.8776 11.8843 44.9632ZM40.3964 43.6216C41.1572 44.4708 41.918 45.32 42.6789 46.1693C43.2163 45.2307 43.9956 44.3479 44.2278 43.3391C44.4985 42.1627 44.291 40.8763 44.291 39.696C41.1389 39.3304 40.0253 40.5296 40.3964 43.6216Z" fill="#111214"/>
<path d="M2.96309 12.0227C0.218182 11.6014 -0.40034 10.7172 0.377746 8.08946C1.18685 5.35697 2.99027 3.59475 5.77504 2.87365C20.7265 -0.997949 35.6788 -0.949998 50.6029 2.97226C53.6037 3.7609 55.4088 5.95972 55.7934 8.98558C55.9064 9.87457 54.8688 10.9098 54.3585 11.878C53.628 11.1985 52.4131 10.6131 52.2594 9.8216C51.826 7.58989 50.4859 6.7382 48.4874 6.23852C35.0166 2.87032 21.5758 3.02689 8.03782 6.00948C4.60867 6.76497 4.13358 9.28561 2.96615 11.844C2.92989 12.0517 2.95146 12.0317 2.96309 12.0227Z" fill="#111214"/>
<path d="M52.5837 48.1194C55.2583 48.2362 56.266 49.2361 55.2413 51.4885C54.4859 53.1489 53.0696 54.9696 51.4775 55.7168C35.8378 63.0559 20.0791 62.7962 4.48899 55.5912C2.82265 54.8211 1.53896 52.6157 0.726081 50.7879C0.00458756 49.1655 0.993294 47.8755 3.31655 48.1257C3.5512 48.1302 3.52517 48.1074 3.55653 48.2979C4.243 50.4475 5.03515 52.1361 7.23264 53.0248C20.1728 58.2584 33.1871 58.8441 46.3635 54.0103C49.3105 52.9292 52.1421 51.7565 52.6149 48.0808C52.6149 48.0808 52.5958 48.108 52.5837 48.1194Z" fill="#111214"/>
</svg>
