<svg width="56" height="63" viewBox="0 0 56 63" fill="none" xmlns="http://www.w3.org/2000/svg">
<path d="M48.7909 43.4374C48.2836 49.2331 46.4376 54.3224 43.2539 58.8721C39.9687 63.567 35.2593 63.2492 33.3322 57.8458C31.766 53.4543 31.3284 48.6559 30.4527 44.0261C30.2719 43.0703 30.6598 41.9164 30.261 41.1148C29.3828 39.3492 25.7984 39.0563 25.4245 40.9925C24.8682 43.8734 24.9787 46.8787 24.4882 49.7778C24.0296 52.4887 23.4056 55.2352 22.3777 57.7729C20.2829 62.9446 16.0811 63.5836 12.4162 59.3395C8.698 55.0337 7.48855 49.7092 6.844 44.2286C6.65605 42.6305 6.46835 41.0158 6.49396 39.412C6.58355 33.8012 5.55165 28.7518 2.41151 23.7457C-1.60486 17.3427 -0.325634 8.61851 4.19065 4.29325C9.05934 -0.369488 14.9631 -0.957764 20.9154 1.25095C25.5763 2.98044 29.7203 2.94868 34.3694 1.234C40.3172 -0.959672 46.2486 -0.365559 51.1753 4.12459C55.8477 8.38303 57.1658 17.1996 53.1054 23.7718C49.9409 28.8939 48.891 34.0094 49.1785 39.7352C49.236 40.8804 48.944 42.0432 48.7909 43.4374ZM43.5227 3.68802C40.4823 3.19693 37.2425 3.37036 34.3865 4.52276C34.3373 4.54261 34.2883 4.56295 34.2395 4.58379C29.8825 6.44523 25.6995 6.29306 21.2202 4.72273C18.4521 3.75233 15.2574 3.42723 12.3173 3.64887C7.51081 4.01121 4.07058 7.78445 3.57453 12.3846C3.05619 17.1917 4.1941 21.4841 6.88852 25.5989C8.27323 27.7135 8.9674 30.4647 9.33164 33.0198C9.87247 36.8136 9.70305 40.703 10.0944 44.5252C10.5439 48.9154 11.6021 53.1866 14.392 56.7587C16.7995 59.8413 18.6382 59.6329 19.7212 55.9001C20.7828 52.241 21.2613 48.4064 21.8914 44.6314C22.185 42.8728 22.065 41.0379 22.43 39.3C22.9793 36.6839 25.5317 35.0268 28.2919 35.2302C31.2103 35.4453 33.17 37.7335 33.5504 41.0358C34.0808 45.6394 34.5945 50.2589 35.4871 54.7985C35.9804 57.3073 40.2815 57.6578 41.6462 55.4957C45.1544 49.9377 46.1761 43.6504 46.0222 37.2414C45.9001 32.159 46.5612 27.5351 49.8582 23.4215C50.8673 22.1626 51.3395 20.364 51.7255 18.734C53.4835 11.3085 50.6751 5.5721 44.4282 3.8808C44.1317 3.80053 43.8304 3.73774 43.5227 3.68802Z" fill="#111214"/>
<path d="M27.7383 10.7855C31.8336 10.7855 36.9314 14.6432 36.8883 18.7382C36.8798 19.5406 36.8654 20.5209 36.8985 21.7185C36.9967 25.262 33.0602 29.0424 29.519 29.202C28.663 29.2406 27.5754 29.2141 26.197 29.2141C22.7308 29.2141 19.0371 25.332 18.7066 21.8817C18.6203 20.9809 18.6097 19.8231 18.5873 18.3395C18.5337 14.787 22.4455 11.0326 25.9923 10.8241C26.4883 10.7949 27.0659 10.7855 27.7383 10.7855ZM31.3488 18.4944C30.4942 18.4405 29.7936 17.822 29.5628 16.9974C29.4018 16.4224 29.239 15.8408 29.072 15.2441C28.9155 14.6849 28.5468 14.2982 27.9661 14.2982C27.1506 14.2982 26.4194 15.0466 26.4241 15.8621C26.4352 17.7773 25.5213 18.8145 23.5895 18.7552C22.7878 18.7306 22.0323 19.4023 22.0323 20.2044C22.0323 20.8557 22.5406 21.2849 23.1897 21.3387C25.6252 21.5403 25.9364 21.9039 26.3758 24.7209C26.4765 25.3662 26.9185 25.8462 27.5716 25.8462C28.4014 25.8462 29.1115 25.084 29.0988 24.2543C29.0691 22.3112 29.9499 21.2372 31.8804 21.2478C32.7095 21.2523 33.4832 20.6374 33.4832 19.8083C33.4832 19.094 32.904 18.5485 32.1899 18.5307C31.9164 18.5239 31.6392 18.5127 31.3488 18.4944Z" fill="#111214"/>
<path d="M48.4657 9.26311C51.9421 13.5556 50.6991 19.6472 47.9059 23.3963C47.2699 24.2499 46.0529 24.8376 45.4632 24.606C43.9394 24.0076 44.7721 22.8812 45.2276 21.7426C46.0099 19.7874 46.8217 17.7245 46.9681 15.6605C47.238 11.8538 45.6799 9.96575 42.1713 8.48297C41.3813 8.14908 39.9869 7.55087 40.2216 6.4867C40.4693 5.36326 42.3868 5.37931 43.0593 5.69614C44.9395 6.58185 46.8738 7.29744 48.4657 9.26311Z" fill="#111214"/>
</svg>
