<svg width="54" height="66" viewBox="0 0 54 66" fill="none" xmlns="http://www.w3.org/2000/svg">
<path d="M30.059 4.23102C33.9871 2.88086 37.6504 1.47402 41.397 0.343222C44.7904 -0.680964 47.5566 0.672287 49.7657 3.26864C53.077 7.16038 53.8513 11.856 52.9684 16.5935C51.7493 23.1346 50.0851 29.6136 48.1594 35.9824C47.8259 37.0853 45.2533 37.5111 43.8778 38.1715C42.7352 40.0246 41.4987 41.9838 40.3228 43.9788C40.1049 44.3484 40.0827 44.8596 40.0585 45.3101C40.0324 45.7955 40.3316 46.4525 40.1088 46.7495C37.7789 49.8549 38.3696 54.0101 36.2943 57.213C35.9068 57.811 35.8733 58.761 35.9544 59.5187C36.2981 62.7284 34.2506 65.4231 31.0174 65.58C28.0756 65.7228 25.1146 65.7278 22.1739 65.5704C18.9246 65.3964 16.9662 62.7035 17.3171 59.4426C17.4047 58.6284 16.9986 57.7504 16.7613 56.9183C16.6858 56.6538 16.3341 56.4683 16.2581 56.2037C15.2256 52.6108 14.226 49.0084 13.1999 45.4136C13.0309 44.8214 12.8367 44.2207 12.5467 43.6817C11.5756 41.8766 10.5558 40.0977 10.1117 37.9931C9.95026 37.8929 9.77391 37.6875 9.6295 37.7079C5.99909 38.2213 4.77402 36.304 4.1406 33.0064C3.12565 27.7227 1.40532 22.5738 0.40528 17.2881C-0.533118 12.3282 0.0324763 7.46891 3.43511 3.3554C6.29865 -0.106383 9.46599 -0.501972 13.6915 1.02572C18.0868 2.61483 22.714 3.57869 27.2702 4.69129C28.0451 4.88052 28.9732 4.44269 30.059 4.23102ZM43.7782 34.3286C44.4353 33.8052 45.4929 33.3985 45.6853 32.7394C47.0573 28.038 48.5426 23.338 49.4205 18.5332C50.2482 14.0028 50.7572 9.18781 47.1644 5.42657C46.1006 4.31287 43.8737 3.11476 42.6956 3.50652C36.6802 5.50696 30.8383 8.02692 24.9252 10.3383C23.3026 10.9726 21.6751 11.667 19.9842 12.0124C19.4254 12.1266 18.6604 11.2315 17.9897 10.7978C18.5047 10.1919 18.9099 9.39094 19.56 9.02507C20.5807 8.45063 21.7666 8.16965 22.9273 7.74812C18.9643 6.34665 15.2397 5.14801 11.614 3.70144C9.53817 2.87326 7.9905 3.43544 6.54682 4.82912C3.76358 7.51598 2.89656 11.0198 3.48924 14.5788C4.5912 21.1959 6.17772 27.7323 7.56824 34.3295C19.8801 34.3295 31.5587 34.3295 43.7782 34.3286ZM38.2341 37.6104C35.0199 37.6104 31.8058 37.6104 28.4932 37.6104C28.4932 38.9015 28.4932 40.0157 28.4932 41.3755C31.6102 41.3755 34.5454 41.4879 37.4674 41.3397C39.7843 41.2223 40.1472 40.0054 38.2341 37.6104ZM19.3045 37.4564C18.2269 37.4585 17.0647 37.2093 16.0958 37.535C15.1663 37.8476 14.4373 38.7564 13.6202 39.4031C14.4193 40.0638 15.1773 41.2245 16.0249 41.2941C18.9168 41.5316 21.8402 41.385 24.7446 41.385C24.7446 39.9074 24.7446 38.7964 24.7446 37.4565C22.9697 37.4565 21.4178 37.4565 19.3045 37.4564ZM19.4926 48.4096C21.2244 48.4096 22.9561 48.4096 24.7845 48.4096C24.7845 46.9624 24.7845 45.8526 24.7845 44.4772C22.8639 44.4772 21.0919 44.2701 19.4022 44.5538C18.3669 44.7276 17.4578 45.6537 16.492 46.242C17.3177 46.9632 18.1435 47.6845 19.4926 48.4096ZM31.0977 44.4784C30.2473 44.5274 29.397 44.5764 28.5042 44.6278C28.5042 45.9362 28.5042 47.0424 28.5042 48.3845C30.7283 48.3845 32.7808 48.567 34.7695 48.2907C35.5191 48.1865 36.121 47.0198 36.7903 46.3374C36.145 45.7266 35.5936 44.8227 34.8309 44.5784C33.8571 44.2666 32.7128 44.4873 31.0977 44.4784ZM19.2853 52.1087C18.4048 55.3107 20.1486 56.2426 24.7593 55.051C24.7593 53.9345 24.7593 52.8261 24.7593 51.4089C22.9254 51.5608 21.3192 51.6939 19.2853 52.1087ZM33.5744 51.8101C31.8861 51.7042 30.1979 51.5982 28.5007 51.4917C28.5007 53.0042 28.5007 54.114 28.5007 55.4661C29.8382 55.4661 30.9946 55.5808 32.1194 55.441C34.1534 55.1882 35.2033 54.2462 33.5744 51.8101ZM20.8648 61.4899C22.1218 61.8683 23.3789 62.2466 24.7255 62.6519C24.7255 60.8728 24.7255 59.7619 24.7255 58.5898C22.7538 58.6963 20.4828 57.8833 20.8648 61.4899ZM30.7731 62.4139C32.3752 62.1519 33.2802 60.9309 32.3877 59.7707C31.6849 58.8572 29.9277 58.755 28.6388 58.2924C28.4949 58.5725 28.351 58.8526 28.207 59.1327C28.7773 60.3114 27.1244 62.7066 30.7731 62.4139Z" fill="#111214"/>
<path d="M40.773 8.53667C42.172 7.10061 43.2554 7.50035 43.831 8.97341C45.5013 13.2474 45.6739 17.5787 43.6998 21.8055C43.4112 22.4235 42.4081 22.7077 41.7356 23.1464C41.371 22.4565 40.5179 21.5378 40.7173 21.1122C42.6624 16.9612 41.64 12.8804 40.773 8.53667Z" fill="#111214"/>
</svg>
