<svg width="219" height="371" viewBox="0 0 219 371" fill="none" xmlns="http://www.w3.org/2000/svg">
<g opacity="0.4">
<path d="M224.672 370.586C218.966 370.586 213.658 368.276 209.321 363.905C194.584 349.049 188.838 309.935 189.486 228.896C189.621 212.161 182.155 196.536 168.998 185.997C155.84 196.541 148.377 212.163 148.511 228.896C149.158 309.936 143.411 349.05 128.676 363.905C124.339 368.276 119.032 370.586 113.325 370.586C98.0769 370.586 84.5823 355.383 72.0721 324.108C62.4658 300.091 53.8266 267.026 47.7452 231.002C43.7389 207.27 34.3433 184.95 20.5759 166.454C6.9192 148.109 -0.19359 126.287 0.00400765 103.347C0.238519 76.0164 11.0716 50.2281 30.5071 30.7325C49.9441 11.2362 75.6984 0.323499 103.027 0.00647399C122.276 -0.2056 141.119 4.84074 157.552 14.6338C164.613 18.8405 173.383 18.8405 180.444 14.6338C196.878 4.84074 215.707 -0.217904 234.969 0.00719779C262.298 0.324946 288.051 11.2362 307.488 30.7333C326.924 50.2296 337.758 76.0178 337.993 103.347C338.191 126.287 331.077 148.109 317.421 166.454C303.653 184.949 294.258 207.269 290.252 231.001C284.171 267.025 275.532 300.09 265.926 324.107C253.415 355.382 239.92 370.586 224.672 370.586ZM168.998 171.02C172.105 171.02 175.212 172.058 177.805 174.136L178.054 174.335C194.87 187.715 204.421 207.647 204.25 229.013C204.014 258.536 203.386 336.958 219.802 353.506C221.838 355.558 223.474 355.821 224.671 355.821C238.99 355.821 261.738 311.213 275.693 228.542C280.087 202.517 290.42 177.998 305.577 157.637C317.294 141.896 323.398 123.167 323.227 103.474C322.812 55.1246 283.14 15.3322 234.796 14.7713C218.29 14.5686 202.097 18.9179 188 27.3184C176.278 34.3023 161.715 34.3016 149.993 27.3184C135.895 18.9179 119.71 14.5824 103.196 14.7713C54.8536 15.3315 15.1836 55.1239 14.7667 103.474C14.5973 123.167 20.7011 141.897 32.418 157.638C47.5751 177.999 57.9088 202.518 62.3015 228.544C76.2579 311.214 99.0048 355.821 113.324 355.821C114.521 355.821 116.156 355.558 118.192 353.506C134.608 336.957 133.981 258.536 133.746 229.013C133.575 207.646 143.125 187.715 159.948 174.329L160.189 174.137C162.783 172.059 165.891 171.02 168.998 171.02Z" fill="white"/>
<path d="M33.2788 109.793C33.2571 109.793 33.2354 109.793 33.2136 109.793C29.1365 109.759 25.8606 106.425 25.8953 102.348C26.1472 73.0619 42.6527 46.6323 68.9701 33.3737C72.6094 31.5381 77.0499 33.0031 78.8848 36.6453C80.7196 40.286 79.2546 44.7251 75.6132 46.5599C54.2574 57.3185 40.8635 78.7444 40.6594 102.476C40.6239 106.53 37.3256 109.793 33.2788 109.793Z" fill="white"/>
<path d="M96.6441 40.2274C92.9035 40.2274 89.6963 37.3952 89.3091 33.5931C88.8958 29.5376 91.8489 25.9143 95.9044 25.501C98.2177 25.2657 100.572 25.1318 102.901 25.1043C106.984 25.0667 110.322 28.3231 110.37 32.4002C110.417 36.4767 107.151 39.8206 103.074 39.8684C101.185 39.8909 99.2766 39.9987 97.4019 40.1898C97.1471 40.2151 96.8945 40.2274 96.6441 40.2274Z" fill="white"/>
</g>
</svg>
