<svg width="32" height="32" viewBox="0 0 32 32" fill="none" xmlns="http://www.w3.org/2000/svg">
<circle cx="16" cy="16" r="16" fill="white"/>
<path fill-rule="evenodd" clip-rule="evenodd" d="M15.456 9.74736C15.2372 9.76867 14.744 9.85723 14.5122 9.91682C12.3429 10.4746 10.6144 12.245 10.0702 14.4666C9.96171 14.9095 9.91091 15.297 9.8962 15.7945C9.85689 17.1226 10.1876 18.3242 10.9004 19.4436L11.0467 19.6734L10.6705 20.8237C10.4636 21.4563 10.2989 21.9786 10.3044 21.9842C10.3099 21.9899 10.8376 21.8227 11.4769 21.6128L12.6393 21.231L12.8351 21.3504C13.6809 21.866 14.4449 22.1272 15.4285 22.2371C15.8075 22.2794 16.5724 22.2549 16.9611 22.188C18.2787 21.9611 19.4016 21.3726 20.3282 20.4235C21.119 19.6136 21.6729 18.618 21.9407 17.5254C22.0785 16.9633 22.1078 16.6949 22.1078 15.996C22.1078 15.2971 22.0785 15.0287 21.9407 14.4666C21.6729 13.3739 21.119 12.3784 20.3282 11.5684C19.5374 10.7585 18.5651 10.1909 17.4987 9.91684C17.0071 9.79052 16.6995 9.7522 16.113 9.7443C15.8107 9.74021 15.5151 9.74161 15.456 9.74736ZM13.9221 12.6174C14.1917 12.6494 14.168 12.6125 14.5954 13.6661C14.9131 14.4493 14.9257 14.5057 14.8233 14.6825C14.7907 14.7387 14.6719 14.8893 14.5593 15.0172C14.3157 15.2937 14.2756 15.3625 14.2933 15.4743C14.3229 15.6609 14.8412 16.3712 15.2193 16.7431C15.5954 17.113 15.9225 17.3508 16.3655 17.5763C16.7366 17.7652 16.9034 17.818 17.0238 17.7848C17.0758 17.7705 17.1395 17.7386 17.1652 17.7141C17.2285 17.6536 17.4084 17.4217 17.5823 17.1763C17.7594 16.9265 17.8397 16.8695 17.9913 16.8862C18.1071 16.899 18.5201 17.0876 19.2365 17.4549C19.5615 17.6216 19.6434 17.6739 19.6641 17.7278C19.7277 17.894 19.6221 18.4813 19.4856 18.7198C19.3775 18.9088 19.1128 19.1358 18.8411 19.2726C18.3179 19.5359 17.9217 19.5568 17.2382 19.3571C16.9839 19.2828 16.4693 19.09 16.1672 18.9558C15.1115 18.4868 14.1227 17.5929 13.2314 16.3019C12.6861 15.5118 12.4701 14.9555 12.4697 14.3397C12.4693 13.7628 12.6256 13.3364 12.981 12.9447C13.1704 12.7358 13.3076 12.6546 13.5244 12.6228C13.7246 12.5935 13.7209 12.5935 13.9221 12.6174Z" fill="#A2192A"/>
</svg>
